<?xml version="1.0" encoding="UTF-8"?>
<svg width="39px" height="44px" viewBox="0 0 39 44" version="1.1" xmlns="http://www.w3.org/2000/svg" xmlns:xlink="http://www.w3.org/1999/xlink">
    <!-- Generator: Sketch 46.2 (44496) - http://www.bohemiancoding.com/sketch -->
    <title>Group 2</title>
    <desc>Created with Sketch.</desc>
    <defs></defs>
    <g id="01_Navigation" stroke="none" stroke-width="1" fill="none" fill-rule="evenodd">
        <g id="Navigation_Clients_WIP-Copy-4" transform="translate(-516.000000, -348.000000)" fill="#939598">
            <g id="Group-2" transform="translate(516.000000, 348.000000)">
                <polygon id="Fill-307" points="14.5214844 26.4727273 16.0116805 26.4727273 16.0116805 22 14.5214844 22"></polygon>
                <polygon id="Fill-308" points="15.7633144 41.2181818 14.5214844 41.2181818 14.5214844 36 18.2469746 36 18.2469746 37.3045044 15.7633144 37.3045044"></polygon>
                <polygon id="Fill-309" points="11.6391314 42.3818182 10.5214844 42.3818182 10.5214844 40.82218 11.6391314 39.5300805 11.6391314 23 12.7567785 23 12.7567785 40.0651579 11.6391314 41.3572574"></polygon>
                <polygon id="Fill-310" points="14.5214844 22.4909091 24.9528569 22.4909091 24.9528569 21 14.5214844 21"></polygon>
                <polygon id="Fill-311" points="14.5214844 31.4909091 17.5018765 31.4909091 17.5018765 30 14.5214844 30"></polygon>
                <polygon id="Fill-312" points="15.7633144 34.7090909 14.5214844 34.7090909 14.5214844 28 18.2469746 28 18.2469746 29.2199465 15.7633144 29.2199465"></polygon>
                <polygon id="Fill-313" points="12.5018765 37.6909091 9.52148438 37.6909091 9.52148438 28 12.5018765 28 12.5018765 29.2922732 10.7136112 29.2922732 10.7136112 36.3987987 12.5018765 36.3987987"></polygon>
                <polygon id="Fill-314" points="22.5214844 26.4727273 24.0116805 26.4727273 24.0116805 22 22.5214844 22"></polygon>
                <polygon id="Fill-315" points="24.2469746 41.2181818 23.0051445 41.2181818 23.0051445 37.3045044 20.5214844 37.3045044 20.5214844 36 24.2469746 36"></polygon>
                <polygon id="Fill-316" points="27.7567785 42.3818182 26.6391314 42.3818182 26.6391314 41.3572574 25.5214844 40.0651579 25.5214844 23 26.6391314 23 26.6391314 39.5300805 27.7567785 40.82218"></polygon>
                <polygon id="Fill-317" points="20.5214844 31.4909091 23.5018765 31.4909091 23.5018765 30 20.5214844 30"></polygon>
                <polygon id="Fill-318" points="24.2469746 34.7090909 23.0051445 34.7090909 23.0051445 29.2199465 20.5214844 29.2199465 20.5214844 28 24.2469746 28"></polygon>
                <polygon id="Fill-319" points="29.5018765 37.6909091 26.5214844 37.6909091 26.5214844 36.3987987 28.3097497 36.3987987 28.3097497 29.2922732 26.5214844 29.2922732 26.5214844 28 29.5018765 28"></polygon>
                <path d="M13.1293275,20.3045455 C12.4102398,20.3045455 11.8254059,20.8896592 11.8254059,21.6090909 C11.8254059,22.3285227 12.4102398,22.9136364 13.1293275,22.9136364 C13.8484152,22.9136364 14.4332491,22.3285227 14.4332491,21.6090909 C14.4332491,20.8896592 13.8484152,20.3045455 13.1293275,20.3045455 M13.1293275,24.2181818 C11.6913165,24.2181818 10.5214844,23.04779 10.5214844,21.6090909 C10.5214844,20.1703918 11.6913165,19 13.1293275,19 C14.5673386,19 15.7371706,20.1703918 15.7371706,21.6090909 C15.7371706,23.04779 14.5673386,24.2181818 13.1293275,24.2181818" id="Fill-320"></path>
                <path d="M6.10971967,3.54090909 C5.39063198,3.54090909 4.8057981,4.1260228 4.8057981,4.84545455 C4.8057981,5.56488629 5.39063198,6.15 6.10971967,6.15 C6.82880735,6.15 7.41364124,5.56488629 7.41364124,4.84545455 C7.41364124,4.1260228 6.82880735,3.54090909 6.10971967,3.54090909 M6.10971967,7.45454545 C4.67170862,7.45454545 3.50187653,6.28415363 3.50187653,4.84545455 C3.50187653,3.40675546 4.67170862,2.23636364 6.10971967,2.23636364 C7.54773071,2.23636364 8.71756281,3.40675546 8.71756281,4.84545455 C8.71756281,6.28415363 7.54773071,7.45454545 6.10971967,7.45454545" id="Fill-321"></path>
                <path d="M32.9332491,3.54090909 C32.2141614,3.54090909 31.6293275,4.1260228 31.6293275,4.84545455 C31.6293275,5.56488629 32.2141614,6.15 32.9332491,6.15 C33.6523368,6.15 34.2371706,5.56488629 34.2371706,4.84545455 C34.2371706,4.1260228 33.6523368,3.54090909 32.9332491,3.54090909 M32.9332491,7.45454545 C31.495238,7.45454545 30.3254059,6.28415363 30.3254059,4.84545455 C30.3254059,3.40675546 31.495238,2.23636364 32.9332491,2.23636364 C34.3712601,2.23636364 35.5410922,3.40675546 35.5410922,4.84545455 C35.5410922,6.28415363 34.3712601,7.45454545 32.9332491,7.45454545" id="Fill-322"></path>
                <path d="M26.1293275,20.3045455 C25.4102398,20.3045455 24.8254059,20.8896592 24.8254059,21.6090909 C24.8254059,22.3285227 25.4102398,22.9136364 26.1293275,22.9136364 C26.8484152,22.9136364 27.4332491,22.3285227 27.4332491,21.6090909 C27.4332491,20.8896592 26.8484152,20.3045455 26.1293275,20.3045455 M26.1293275,24.2181818 C24.6913165,24.2181818 23.5214844,23.04779 23.5214844,21.6090909 C23.5214844,20.1703918 24.6913165,19 26.1293275,19 C27.5673386,19 28.7371706,20.1703918 28.7371706,21.6090909 C28.7371706,23.04779 27.5673386,24.2181818 26.1293275,24.2181818" id="Fill-323"></path>
                <polygon id="Fill-324" points="12.7987723 19.1818182 11.5214844 19.1818182 11.5214844 17.6821619 14.7147847 14.5760665 14.7147847 8 15.9920726 8 15.9920726 15.0905654 12.7987723 18.1966608"></polygon>
                <polygon id="Fill-325" points="26.9920726 19.1818182 25.7147847 19.1818182 25.7147847 18.1966608 22.5214844 15.0905654 22.5214844 8 23.7987723 8 23.7987723 14.5760665 26.9920726 17.6821619"></polygon>
                <polygon id="Fill-326" points="6.48226869 3.72727273 33.3057981 3.72727273 33.3057981 2.23636364 6.48226869 2.23636364"></polygon>
                <polygon id="Fill-327" points="10.2077589 6.70909091 28.8352099 6.70909091 28.8352099 5.21818182 10.2077589 5.21818182"></polygon>
                <polygon id="Fill-328" points="19.5214844 21.2 21.0116805 21.2 21.0116805 13 19.5214844 13"></polygon>
                <polygon id="Fill-329" points="31.5214844 17.2 33.0116805 17.2 33.0116805 9 31.5214844 9"></polygon>
                <path d="M23.6195236,2.98181818 L22.3422357,2.98181818 L22.3422357,1.19269721 L15.955635,1.19269721 L15.955635,2.98181818 L14.6783471,2.98181818 L14.6783471,1.19269721 C14.6783471,0.534947621 15.2512353,0 15.955635,0 L22.3422357,0 C23.0466354,0 23.6195236,0.534947621 23.6195236,1.19269721 L23.6195236,2.98181818 Z" id="Fill-330"></path>
                <path d="M12.7633014,11.2424242 L12.7633014,12.4848485 L25.1825671,12.4848485 L25.1816281,11.2424242 L12.7633014,11.2424242 Z M25.1816281,13.7272727 L12.7633014,13.7272727 C12.0784632,13.7272727 11.5214844,13.1700216 11.5214844,12.4848485 L11.5214844,11.2424242 C11.5214844,10.5572512 12.0784632,10 12.7633014,10 L25.1816281,10 C25.8666229,10 26.4234452,10.5572512 26.4234452,11.2424242 L26.4234452,12.4848485 C26.4234452,13.1700216 25.8666229,13.7272727 25.1816281,13.7272727 L25.1816281,13.7272727 Z" id="Fill-331"></path>
                <polygon id="Fill-332" points="21.5214844 21.2363636 23.0116805 21.2363636 23.0116805 19 21.5214844 19"></polygon>
                <polygon id="Fill-333" points="16.5214844 21.2363636 18.0116805 21.2363636 18.0116805 19 16.5214844 19"></polygon>
                <path d="M32.7631579,24.6675555 L34.004988,24.6675555 L34.004988,18.2778991 L32.7631579,18.2778991 L32.7631579,24.6675555 Z M31.5214844,25.9454545 L35.2469746,25.9454545 L35.2469746,17 L31.5214844,17 L31.5214844,25.9454545 Z" id="Fill-334"></path>
                <polygon id="Fill-335" points="5.52148438 17.2 7.01168045 17.2 7.01168045 9 5.52148438 9"></polygon>
                <path d="M5.76331444,24.6675555 L7.00514451,24.6675555 L7.00514451,18.2778991 L5.76331444,18.2778991 L5.76331444,24.6675555 Z M4.52148438,25.9454545 L8.24697457,25.9454545 L8.24697457,17 L4.52148438,17 L4.52148438,25.9454545 Z" id="Fill-336"></path>
                <polygon id="Fill-337" points="31.5214844 27.2363636 33.0116805 27.2363636 33.0116805 25 31.5214844 25"></polygon>
                <polygon id="Fill-338" points="5.52148438 27.2363636 7.01168045 27.2363636 7.01168045 25 5.52148438 25"></polygon>
                <polygon id="Fill-339" points="0.521484375 43.4909091 18.4038373 43.4909091 18.4038373 42 0.521484375 42"></polygon>
                <polygon id="Fill-340" points="20.5214844 43.4909091 38.4038373 43.4909091 38.4038373 42 20.5214844 42"></polygon>
                <polygon id="Fill-341" points="6.52148438 15.4909091 8.75677849 15.4909091 8.75677849 14 6.52148438 14"></polygon>
                <polygon id="Fill-342" points="31.5214844 15.4909091 33.7567785 15.4909091 33.7567785 14 31.5214844 14"></polygon>
            </g>
        </g>
    </g>
</svg>