<svg width="17" height="17" viewBox="0 0 17 17" xmlns="http://www.w3.org/2000/svg"><path d="M8.5 0C3.81 0 0 3.81 0 8.5 0 13.19 3.81 17 8.5 17c4.69 0 8.5-3.81 8.5-8.5C17 3.81 13.19 0 8.5 0zm-.386.81v3.247h-2.77c.14-.402.3-.778.476-1.117C6.45 1.724 7.254.98 8.114.81zm.772 0c.86.17 1.663.914 2.294 2.13.176.34.336.715.477 1.117h-2.77V.81zm-2.752.33c-.378.4-.715.89-1.003 1.444-.23.448-.435.942-.608 1.473h-2.35C3.13 2.697 4.517 1.66 6.135 1.14zm4.732 0c1.618.52 3.004 1.557 3.96 2.917H12.48c-.173-.53-.377-1.025-.61-1.473-.287-.554-.624-1.043-1.002-1.443zm-9.17 3.69h2.602c-.253 1.003-.4 2.112-.428 3.284H.785c.058-1.187.38-2.3.91-3.284zm3.405 0h3.014v3.284H4.642c.03-1.186.192-2.3.46-3.284zm3.786 0H11.9c.266.984.428 2.098.458 3.284H8.886V4.83zm3.816 0h2.602c.532.985.853 2.097.91 3.284H13.13c-.027-1.172-.175-2.28-.428-3.284zM.785 8.886H3.87c.027 1.173.18 2.282.434 3.284H1.696c-.532-.985-.853-2.097-.91-3.284zm3.857 0h3.472v3.284H5.1c-.266-.984-.428-2.097-.458-3.284zm4.244 0h3.472c-.03 1.187-.192 2.3-.46 3.284H8.887V8.886zm4.244 0h3.085c-.058 1.187-.38 2.3-.91 3.284h-2.61c.255-1.002.408-2.11.435-3.284zM2.173 12.943h2.355c.172.528.372 1.02.603 1.467.29.556.63 1.047 1.01 1.45-1.62-.52-3.01-1.555-3.967-2.917zm3.17 0h2.77v3.248c-.86-.17-1.662-.92-2.293-2.136-.176-.34-.336-.71-.477-1.11zm3.543 0h2.77c-.14.4-.3.772-.476 1.11-.63 1.217-1.434 1.966-2.294 2.138v-3.247zm3.586 0h2.355c-.958 1.362-2.347 2.398-3.967 2.916.38-.403.72-.894 1.01-1.45.23-.446.43-.94.602-1.467z" fill-rule="nonzero" fill="#F4F4F4"/></svg>