<?xml version="1.0" encoding="utf-8"?>
<svg width="190px" height="46px" viewBox="0 0 190 46" xmlns="http://www.w3.org/2000/svg">
  <defs>
    <style>.cls-1{fill:#fff;}.cls-2{fill:#ffb81c;}</style>
  </defs>
  <title>Asset 1</title>
  <g id="Layer_2" data-name="Layer 2" transform="matrix(0.495636, 0, 0, 0.495636, 49.502075, 0)">
    <g id="LOGO">
      <path class="cls-1" d="M21.89,37.21c-3.1,0-9.47,4.54-9.47,8.3V88.77a2.71,2.71,0,0,1-2.83,2.85H2.84A2.71,2.71,0,0,1,0,88.77V43.43c0-8,14.24-17.74,21.64-17.74,5.17,0,12.16,4.66,15.92,8.93,3.77-4.41,11-8.93,15.81-8.93C60.76,25.69,75,35.4,75,43.43V88.77a2.72,2.72,0,0,1-2.85,2.85H65.42a2.72,2.72,0,0,1-2.85-2.85V45.37c0-3.62-6.35-8.16-9.46-8.16-2.84,0-9.32,4.54-9.32,8.16v43.4a2.8,2.8,0,0,1-2.86,2.85H34.2a2.66,2.66,0,0,1-2.86-2.85V45.51C31.34,41.88,24.74,37.21,21.89,37.21Zm114.54,7V74.26c0,8.42-15.17,18.53-22.68,18.53S91.07,82.68,91.07,74.26V44.21c0-8.55,15.16-18.52,22.67-18.52S136.43,35.53,136.43,44.21ZM124,46c0-4-6.87-8.81-10.24-8.81S103.51,42,103.51,46V72.45c0,4,6.61,8.81,10.24,8.81S124,76.47,124,72.45ZM184.62,3.53A2.8,2.8,0,0,1,187.47.68h6.74a2.73,2.73,0,0,1,2.85,2.85V74.39c0,8.3-14.77,18.41-22.54,18.41s-22.68-10.11-22.68-18.53V44.07c0-8.67,14.4-18.38,21.13-18.38,3.76,0,8.93,2.84,11.66,5.69ZM164.29,72.71c0,3.63,6.6,8.56,10.23,8.56s10.11-5.05,10.11-8.56V45.76c0-3.76-6.87-8.55-10.23-8.55s-10.1,4.8-10.1,8.55Zm62.7-43a2.72,2.72,0,0,0-2.84-2.86h-6.73a2.73,2.73,0,0,0-2.86,2.86V88.77a2.73,2.73,0,0,0,2.86,2.85h6.73A2.72,2.72,0,0,0,227,88.77Zm27.09,14.9v2.33c0,2.46,2.45,3.76,5.19,4.8l14.37,5.43c5.57,2.08,9.83,6.35,9.83,12.32v6.6c0,6.74-13.21,16.72-21.38,16.72-5.18,0-12.82-3.5-17.61-5.84a3.64,3.64,0,0,1-1.95-4.78L244.34,78c.79-1.94,2.86-2.46,4.8-1.55,3.76,1.82,10,4.8,13,4.8s9.34-4.15,9.34-7v-3c0-3-3-4.41-6-5.57l-13.62-5.31c-5-2.08-10-6.21-10-11.79V42.78c0-7.38,14.76-17.09,21.37-17.09,4.81,0,12.18,3,17.37,5.56A3.43,3.43,0,0,1,282,35.53l-1.55,4.27c-.65,1.69-3,2.21-4.8,1.56-3.5-1.56-9.46-4.15-12.44-4.15C260.66,37.21,254.07,41.49,254.07,44.6Z"/>
      <circle class="cls-2" cx="220.73" cy="8" r="8"/>
    </g>
  </g>
</svg>