<?xml version="1.0" encoding="UTF-8"?>
<svg width="37px" height="39px" viewBox="0 0 37 39" version="1.1" xmlns="http://www.w3.org/2000/svg" xmlns:xlink="http://www.w3.org/1999/xlink">
    <!-- Generator: Sketch 46.2 (44496) - http://www.bohemiancoding.com/sketch -->
    <title>Group 3</title>
    <desc>Created with Sketch.</desc>
    <defs></defs>
    <g id="01_Navigation" stroke="none" stroke-width="1" fill="none" fill-rule="evenodd">
        <g id="Navigation_Clients_WIP-Copy-4" transform="translate(-516.000000, -245.000000)" fill="#939598">
            <g id="Group-3" transform="translate(516.000000, 245.000000)">
                <path d="M24.6462491,38.8853747 L23.4090138,38.8853747 L23.4090138,25.5187747 C23.4090138,22.8385213 21.1890138,20.657988 18.4604256,20.657988 C15.7318373,20.657988 13.5118373,22.8385213 13.5118373,25.5187747 L13.5118373,38.8853747 L12.274602,38.8853747 L12.274602,25.5187747 C12.274602,22.1684147 15.0494256,19.442748 18.4604256,19.442748 C21.8714256,19.442748 24.6462491,22.1684147 24.6462491,25.5187747 L24.6462491,38.8853747 Z" id="Fill-579"></path>
                <path d="M18.4604785,29.164148 C16.4137726,29.164148 14.7489491,27.528748 14.7489491,25.5186013 L15.9861844,25.5186013 C15.9861844,26.8588147 17.0961844,27.9487347 18.4604785,27.9487347 C19.8247726,27.9487347 20.9347726,26.8588147 20.9347726,25.5186013 L22.1720079,25.5186013 C22.1720079,27.528748 20.5071844,29.164148 18.4604785,29.164148" id="Fill-580"></path>
                <polygon id="Fill-581" points="15.9861314 34.024692 20.9347197 34.024692 20.9347197 32.8092787 15.9861314 32.8092787"></polygon>
                <polygon id="Fill-582" points="15.9861314 36.455172 20.9347197 36.455172 20.9347197 35.239932 15.9861314 35.239932"></polygon>
                <polygon id="Fill-583" points="5.47024908 9.721452 16.6046608 9.721452 16.6046608 8.506212 5.47024908 8.506212"></polygon>
                <polygon id="Fill-584" points="17.8418961 9.721452 19.0791314 9.721452 19.0791314 8.506212 17.8418961 8.506212"></polygon>
                <polygon id="Fill-585" points="20.3161903 18.227612 21.5534256 18.227612 21.5534256 7.29114533 20.3161903 7.29114533"></polygon>
                <polygon id="Fill-586" points="11.6560726 9.11374533 12.8933079 9.11374533 12.8933079 2.43035867 11.6560726 2.43035867"></polygon>
                <path d="M19.0789903,7.29105867 L17.841755,7.29105867 L17.841755,5.46828533 C17.841755,5.132712 18.1188138,4.860752 18.4604608,4.860752 L26.5020491,4.860752 L26.5020491,6.07581867 L19.0789903,6.07581867 L19.0789903,7.29105867 Z" id="Fill-587"></path>
                <polygon id="Fill-588" points="17.8418961 18.227612 19.0791314 18.227612 19.0791314 13.3669987 17.8418961 13.3669987"></polygon>
                <path d="M28.3577432,12.1517413 L22.7904491,12.1517413 L22.7904491,10.9365013 L27.7392138,10.9365013 L27.7392138,2.43034133 L28.9762726,2.43034133 L28.9762726,11.544208 C28.9762726,11.879608 28.6993903,12.1517413 28.3577432,12.1517413" id="Fill-589"></path>
                <path d="M16.6046961,18.22756 L15.3674608,18.22756 L15.3674608,11.5441733 C15.3674608,11.2086 15.6445197,10.9364667 15.9861667,10.9364667 L19.0789903,10.9364667 L19.0789903,12.1517067 L16.6046961,12.1517067 L16.6046961,18.22756 Z" id="Fill-590"></path>
                <polygon id="Fill-593" points="30.2133667 6.07590533 31.450602 6.07590533 31.450602 4.86066533 30.2133667 4.86066533"></polygon>
                <polygon id="Fill-594" points="32.6878373 6.07590533 33.9250726 6.07590533 33.9250726 4.86066533 32.6878373 4.86066533"></polygon>
                <polygon id="Fill-595" points="35.1621314 6.07590533 36.3993667 6.07590533 36.3993667 4.86066533 35.1621314 4.86066533"></polygon>
                <polygon id="Fill-596" points="33.9248961 15.7973053 35.1621314 15.7973053 35.1621314 14.5820653 33.9248961 14.5820653"></polygon>
                <polygon id="Fill-597" points="2.99595496 9.721452 4.23319026 9.721452 4.23319026 8.506212 2.99595496 8.506212"></polygon>
                <polygon id="Fill-598" points="0.521484375 9.721452 1.75871967 9.721452 1.75871967 8.506212 0.521484375 8.506212"></polygon>
                <polygon id="Fill-599" points="1.75871967 3.64559867 2.99595496 3.64559867 2.99595496 2.43035867 1.75871967 2.43035867"></polygon>
                <path d="M14.130402,18.22756 L12.8931667,18.22756 L12.8931667,14.5820133 L7.32604908,14.5820133 C6.98440202,14.5820133 6.7073432,14.3100533 6.7073432,13.97448 L6.7073432,10.9364667 L7.94457849,10.9364667 L7.94457849,13.3669467 L13.5118726,13.3669467 C13.8533432,13.3669467 14.130402,13.6389067 14.130402,13.97448 L14.130402,18.22756 Z" id="Fill-601"></path>
                <path d="M7.94461379,7.29105867 L6.70737849,7.29105867 L6.70737849,3.645512 L4.23308437,3.645512 L4.23308437,2.43044533 L7.32608437,2.43044533 C7.66755496,2.43044533 7.94461379,2.70240533 7.94461379,3.03797867 L7.94461379,7.29105867 Z" id="Fill-602"></path>
                <path d="M24.0276491,18.22756 L22.7904138,18.22756 L22.7904138,15.18972 C22.7904138,14.8541467 23.0674726,14.5820133 23.4091197,14.5820133 L32.6877667,14.5820133 L32.6877667,15.7972533 L24.0276491,15.7972533 L24.0276491,18.22756 Z" id="Fill-603"></path>
                <polygon id="Fill-604" points="12.8931314 12.1517587 14.1303667 12.1517587 14.1303667 10.9365187 12.8931314 10.9365187"></polygon>
                <polygon id="Fill-605" points="10.4188373 12.1517587 11.6560726 12.1517587 11.6560726 10.9365187 10.4188373 10.9365187"></polygon>
                <path d="M21.553355,3.64554667 L20.3161197,3.64554667 L20.3161197,1.21524 L14.1302961,1.21524 L14.1302961,0 L20.9348256,0 C21.2762961,0 21.553355,0.272133333 21.553355,0.607706667 L21.553355,3.64554667 Z" id="Fill-606"></path>
                <path d="M31.4506197,13.3669467 L30.2133844,13.3669467 L30.2133844,11.5441733 C30.2133844,11.2086 30.4904432,10.93664 30.8320903,10.93664 L35.1621491,10.93664 L35.1621491,12.1517067 L31.4506197,12.1517067 L31.4506197,13.3669467 Z" id="Fill-607"></path>
                <polygon id="Fill-608" points="25.8833079 24.3034653 27.1205432 24.3034653 27.1205432 23.088052 25.8833079 23.088052"></polygon>
                <polygon id="Fill-609" points="25.8833079 26.733772 27.1205432 26.733772 27.1205432 25.518532 25.8833079 25.518532"></polygon>
                <polygon id="Fill-610" points="25.8833079 29.1640787 27.1205432 29.1640787 27.1205432 27.9486653 25.8833079 27.9486653"></polygon>
                <polygon id="Fill-611" points="9.8003079 24.3034653 11.0375432 24.3034653 11.0375432 23.088052 9.8003079 23.088052"></polygon>
                <polygon id="Fill-612" points="9.8003079 26.733772 11.0375432 26.733772 11.0375432 25.518532 9.8003079 25.518532"></polygon>
                <polygon id="Fill-613" points="9.8003079 29.1640787 11.0375432 29.1640787 11.0375432 27.9486653 9.8003079 27.9486653"></polygon>
                <polygon id="Fill-614" points="6.70748437 17.012372 11.6560726 17.012372 11.6560726 15.797132 6.70748437 15.797132"></polygon>
                <polygon id="Fill-615" points="4.23301379 17.012372 5.47024908 17.012372 5.47024908 15.797132 4.23301379 15.797132"></polygon>
                <path d="M11.0375079,36.4551547 L7.32597849,36.4551547 C5.6207432,36.4551547 4.23315496,35.0922347 4.23315496,33.4173147 L4.23315496,18.2275947 L5.47021379,18.2275947 L5.47021379,33.4173147 C5.47021379,34.422128 6.30262555,35.2397413 7.32597849,35.2397413 L11.0375079,35.2397413 L11.0375079,36.4551547 Z" id="Fill-616"></path>
                <path d="M29.5949256,36.4551547 L25.8833961,36.4551547 L25.8833961,35.2397413 L29.5949256,35.2397413 C30.6182785,35.2397413 31.4506903,34.422128 31.4506903,33.4173147 L31.4506903,18.2275947 L32.6877491,18.2275947 L32.6877491,33.4173147 C32.6877491,35.0922347 31.3001608,36.4551547 29.5949256,36.4551547" id="Fill-617"></path>
                <polygon id="Fill-618" points="14.7488961 25.518532 15.9861314 25.518532 15.9861314 24.303292 14.7488961 24.303292"></polygon>
                <polygon id="Fill-619" points="20.9347197 25.518532 22.171955 25.518532 22.171955 24.303292 20.9347197 24.303292"></polygon>
            </g>
        </g>
    </g>
</svg>